<svg xmlns="http://www.w3.org/2000/svg" width="21" height="21" viewBox="0 0 21 21" fill="none">
  <g clip-path="url(#clip0_6571_499)">
    <path d="M19.7879 15.0058L16.9939 12.2118C15.9961 11.214 14.2998 11.6131 13.9006 12.9103C13.6013 13.8084 12.6034 14.3073 11.7054 14.1077C9.70967 13.6088 7.01549 11.0144 6.51656 8.91892C6.21721 8.02082 6.81592 7.02297 7.71398 6.72366C9.01118 6.32452 9.41032 4.62818 8.41247 3.63034L5.6185 0.836369C4.82023 0.137877 3.62281 0.137877 2.92432 0.836369L1.02841 2.73228C-0.867493 4.72797 1.22798 10.0165 5.91786 14.7064C10.6077 19.3963 15.8963 21.5916 17.892 19.5959L19.7879 17.7C20.4864 16.9017 20.4864 15.7043 19.7879 15.0058Z" fill="white"/>
  </g>
  <defs>
    <clipPath id="clip0_6571_499">
      <rect width="20.0208" height="20.0208" fill="white" transform="translate(0.3125 0.3125)"/>
    </clipPath>
  </defs>
</svg>